<svg width="239" height="56" viewBox="0 0 239 56" fill="none" xmlns="http://www.w3.org/2000/svg">
<path d="M196.708 49.4617V40.5779H200.833C201.848 40.5779 202.648 40.8571 203.155 41.3648C203.562 41.7709 203.765 42.2658 203.765 42.875V42.9004C203.765 43.903 203.232 44.4614 202.597 44.8167C203.625 45.2102 204.26 45.8066 204.26 46.9996V47.025C204.26 48.6494 202.94 49.4617 200.934 49.4617H196.708ZM201.823 43.2304V43.205C201.823 42.6212 201.366 42.2912 200.541 42.2912H198.612V44.1695H200.414C201.277 44.1695 201.823 43.8903 201.823 43.2304ZM202.318 46.7585C202.318 46.162 201.874 45.7939 200.871 45.7939H198.612V47.7484H200.934C201.797 47.7484 202.318 47.4438 202.318 46.7839V46.7585ZM208.405 49.4617V40.5779H215.106V42.3166H210.347V44.1187H214.535V45.8574H210.347V47.723H215.17V49.4617H208.405ZM221.514 49.4617V42.3801H218.811V40.5779H226.172V42.3801H223.469V49.4617H221.514ZM228.312 49.4617L232.119 40.5145H233.921L237.728 49.4617H235.685L234.873 47.4692H231.116L230.304 49.4617H228.312ZM231.814 45.7432H234.175L232.995 42.8623L231.814 45.7432Z" fill="white"/>
<path d="M158.373 14.009L157.883 15.3667C157.34 16.8735 156.153 18.0605 154.646 18.604L153.288 19.0935C153.166 19.138 153.166 19.3111 153.288 19.3556L154.646 19.8451C156.153 20.3886 157.34 21.5756 157.883 23.0824L158.373 24.4401C158.417 24.5628 158.591 24.5628 158.635 24.4401L159.124 23.0824C159.668 21.5756 160.855 20.3886 162.362 19.8451L163.72 19.3556C163.842 19.3111 163.842 19.138 163.72 19.0935L162.362 18.604C160.855 18.0605 159.668 16.8735 159.124 15.3667L158.635 14.009C158.591 13.8863 158.416 13.8863 158.373 14.009Z" fill="white"/>
<path d="M192.152 5.24666L191.177 7.95009C190.095 10.9504 187.731 13.3138 184.731 14.3962L182.028 15.3708C181.783 15.4594 181.783 15.8042 182.028 15.8928L184.731 16.8673C187.731 17.9497 190.095 20.3131 191.177 23.3134L192.152 26.0169C192.24 26.2611 192.585 26.2611 192.674 26.0169L193.648 23.3134C194.731 20.3131 197.094 17.9497 200.094 16.8673L202.798 15.8928C203.042 15.8042 203.042 15.4594 202.798 15.3708L200.094 14.3962C197.094 13.3138 194.731 10.9504 193.648 7.95009L192.674 5.24666C192.585 5.00242 192.238 5.00242 192.152 5.24666Z" fill="white"/>
<path d="M172.382 0.0805516L171.953 1.26934C171.477 2.58871 170.438 3.62798 169.118 4.10392L167.93 4.53247C167.822 4.57143 167.822 4.72306 167.93 4.76202L169.118 5.19057C170.438 5.66651 171.477 6.70579 171.953 8.02515L172.382 9.21394C172.42 9.32134 172.572 9.32134 172.611 9.21394L173.04 8.02515C173.516 6.70579 174.555 5.66651 175.874 5.19057L177.063 4.76202C177.17 4.72306 177.17 4.57143 177.063 4.53247L175.874 4.10392C174.555 3.62798 173.516 2.58871 173.04 1.26934L172.611 0.0805516C172.572 -0.0268505 172.419 -0.0268505 172.382 0.0805516Z" fill="white"/>
<path d="M175.675 50.198C169.802 50.198 165.52 45.5752 165.52 40.043V39.9672C165.52 34.4349 169.84 29.7363 175.751 29.7363C181.624 29.7363 185.944 34.3592 185.944 39.8914V39.9672C185.944 45.4994 181.586 50.198 175.675 50.198ZM175.751 47.5835C179.995 47.5835 182.95 44.1732 182.95 40.043V39.9672C182.95 35.7612 179.805 32.313 175.675 32.313C171.431 32.313 168.513 35.7612 168.513 39.8914V39.9672C168.513 44.1732 171.621 47.5835 175.751 47.5835Z" fill="white"/>
<path d="M157.044 49.7443V30.1541H159.962V49.7443H157.044Z" fill="white"/>
<path d="M139.838 50.1608C135.14 50.1608 130.479 46.4474 130.479 40.0058V39.93C130.479 33.5262 135.14 29.737 139.838 29.737C143.476 29.737 145.825 31.7074 147.341 33.9051V24.5321H150.259V49.744H147.341V45.8032C145.75 48.1525 143.438 50.1608 139.838 50.1608ZM140.369 47.5463C144.006 47.5463 147.455 44.477 147.455 39.9679V39.8921C147.455 35.3829 144.006 32.3516 140.369 32.3516C136.58 32.3516 133.472 35.1556 133.472 39.8921V39.9679C133.472 44.5907 136.693 47.5463 140.369 47.5463Z" fill="white"/>
<path d="M115.465 50.1608C110.729 50.1608 107.962 46.9779 107.962 42.3172V30.1538H110.88V41.5972C110.88 45.2349 112.85 47.5084 116.299 47.5084C119.633 47.5084 122.172 45.0454 122.172 41.3699V30.1538H125.052V49.744H122.172V46.3337C120.846 48.4557 118.837 50.1608 115.465 50.1608Z" fill="white"/>
<path d="M99.5027 50.0843C96.3576 50.0843 93.9704 48.5308 93.9704 44.5521V32.7298H91.2422V30.1531H93.9704V24.2419H96.8881V30.1531H103.102V32.7298H96.8881V44.1732C96.8881 46.5604 98.2143 47.4319 100.185 47.4319C101.17 47.4319 102.004 47.2424 103.027 46.7498V49.2507C102.004 49.7812 100.905 50.0843 99.5027 50.0843Z" fill="white"/>
<path d="M78.4802 50.1224C74.2742 50.1224 70.826 48.7204 67.6431 45.8785L69.4998 43.6807C72.2659 46.1816 74.9183 47.432 78.5939 47.432C82.1557 47.432 84.505 45.5374 84.505 42.9229V42.8471C84.505 40.3841 83.1788 38.9821 77.6087 37.8075C71.5081 36.4812 68.704 34.5108 68.704 30.1533V30.0775C68.704 25.9093 72.3796 22.8401 77.4192 22.8401C81.2842 22.8401 84.0503 23.939 86.7407 26.0988L84.9976 28.4102C82.5347 26.4019 80.0717 25.5304 77.3434 25.5304C73.8953 25.5304 71.6975 27.425 71.6975 29.8122V29.888C71.6975 32.3889 73.0616 33.7909 78.897 35.0413C84.8082 36.3297 87.5364 38.4895 87.5364 42.544V42.6198C87.5364 47.1668 83.7472 50.1224 78.4802 50.1224Z" fill="white"/>
<path d="M54.8807 46.4853L61.1708 30.1538H64.2779L56.0553 50.3882C54.3881 54.4426 52.4935 55.9204 49.5379 55.9204C47.9085 55.9204 46.696 55.5794 45.3698 54.9352L46.355 52.6238C47.3023 53.1164 48.1738 53.3438 49.4242 53.3438C51.1672 53.3438 52.2661 52.4343 53.4408 49.6682L44.5361 30.1538H47.757L54.8807 46.4853Z" fill="white"/>
<path d="M25.4883 49.744V22.0828H28.406V41.1804L38.9779 30.1538H42.6155L34.3929 38.5658L42.8807 49.744H39.3947L32.3846 40.612L28.406 44.6285V49.744H25.4883Z" fill="white"/>
<path d="M10.8371 50.1224C6.63111 50.1224 3.18293 48.7204 0 45.8785L1.85671 43.6807C4.62283 46.1816 7.27528 47.432 10.9508 47.432C14.5127 47.432 16.862 45.5374 16.862 42.9229V42.8471C16.862 40.3841 15.5358 38.9821 9.96562 37.8075C3.86499 36.4812 1.06098 34.5108 1.06098 30.1533V30.0775C1.06098 25.9093 4.73651 22.8401 9.77616 22.8401C13.6411 22.8401 16.4073 23.939 19.0976 26.0988L17.3546 28.4102C14.8916 26.4019 12.4286 25.5304 9.70037 25.5304C6.25219 25.5304 4.05445 27.425 4.05445 29.8122V29.888C4.05445 32.3889 5.41857 33.7909 11.2539 35.0413C17.1651 36.3297 19.8933 38.4895 19.8933 42.544V42.6198C19.8933 47.1668 16.1041 50.1224 10.8371 50.1224Z" fill="white"/>
</svg>
