<svg width="967" height="177" viewBox="0 0 967 177" fill="none" xmlns="http://www.w3.org/2000/svg">
<g clip-path="url(#clip0_8_29)">
<path d="M131.19 62.86V61.89C131.19 45.42 125.95 31.72 116.03 22.26C104.78 11.54 87.96 5.86997 67.37 5.86997H0V176.37H38.2V120.81H60.1L92.79 176.37H136.54L98.56 113.18C113.63 106.63 131.2 92.61 131.2 62.85L131.19 62.86ZM92.74 63.58V63.82C92.74 79.27 82.21 88.49 64.59 88.49H38.21V38.91H63.83C82.75 38.91 92.74 47.44 92.74 63.58ZM670.54 4.90997L606.42 176.38H644.98L657.9 139.66H717.92L731.1 176.38H770.67L706.54 4.90997H670.54ZM706.28 107.34H669.54L688.03 55.15L706.28 107.34ZM882.22 89.19L933.33 5.86997H890.82L860.6 59.91L830.88 5.86997H787.37L837.96 89.67L785.08 176.37H827.58L859.83 119.17L891.83 176.37H935.35L882.22 89.19ZM209.84 143.33V107.04H278.25V74H209.84V38.91H287.63V5.86997H171.89V176.37H243.69L261.13 143.33H209.84ZM537.26 5.86997L498.67 61.12L459.58 5.86997H459.14L419.9 80.18V176.37H457.09V70.79L497.28 123.11L497.49 123.46H499.1L539.75 70.31V176.37H577.19V5.86997H537.26Z" fill="white"/>
<path d="M372.87 5.87L282.87 176.37H329.27L419.29 5.87H372.87Z" fill="white"/>
<path d="M953.75 0C960.76 0 966.34 5.58 966.34 12.54C966.34 19.61 960.77 25.14 953.7 25.14C946.63 25.14 941 19.62 941 12.54C941 5.46 946.69 0 953.7 0L953.75 0ZM953.7 1.95C948.06 1.95 943.45 6.7 943.45 12.54C943.45 18.38 948.06 23.19 953.75 23.19C959.45 23.23 964 18.5 964 12.59C964 6.68 959.45 1.95 953.75 1.95H953.7ZM951.3 19.84H949.03V5.85C950.22 5.68 951.36 5.51 953.06 5.51C955.23 5.51 956.65 5.96 957.51 6.57C958.37 7.18 958.82 8.12 958.82 9.46C958.82 11.31 957.57 12.42 956.03 12.87V12.98C957.29 13.2 958.14 14.31 958.42 16.38C958.77 18.56 959.1 19.4 959.33 19.84H956.94C956.6 19.4 956.26 18.11 955.97 16.27C955.63 14.49 954.72 13.82 952.9 13.82H951.3V19.84ZM951.3 12.09H952.95C954.84 12.09 956.43 11.42 956.43 9.7C956.43 8.47 955.52 7.24 952.95 7.24C952.21 7.24 951.7 7.3 951.3 7.35V12.09Z" fill="white"/>
</g>
<defs>
<clipPath id="clip0_8_29">
<rect width="966.34" height="176.37" fill="white"/>
</clipPath>
</defs>
</svg>
