<svg width="335" height="113" viewBox="0 0 335 113" fill="none" xmlns="http://www.w3.org/2000/svg">
<g clip-path="url(#clip0_150_204)">
<path d="M202.24 37.795H185.76L173.79 74.155L161.82 37.795H156L145.18 58.565V91.545H158.05V59.775L168.37 91.545H178.68L189.07 59.635V91.545H202.24V87.815V37.795Z" fill="black"/>
<path d="M235.21 37.795H217.83L200.74 87.815V91.545H213.69L216.93 81.235H235.6L238.83 91.545L250.73 83.365L235.22 37.805L235.21 37.795ZM220.24 69.795L226.26 49.695L232.28 69.795H220.24Z" fill="black"/>
<path d="M238.82 91.545H258.88L269.34 72.725L280.49 91.545H296.6L278.46 63.845L294.49 37.795H279.14L270.02 54.205L260.84 37.795H244.81L260.84 63.315L248.5 83.365L238.82 91.545Z" fill="black"/>
<path d="M145.18 49.085V37.795H108.07V91.545H128.02L133.9 80.255H122.23V69.945H139.27L145.19 58.575H122.23V49.095H145.19L145.18 49.085Z" fill="black"/>
<path d="M89.59 60.535C88.36 61.685 86.19 62.265 83.07 62.265H75.77V48.635H82.84C86 48.635 88.22 49.195 89.5 50.295C90.78 51.395 91.42 53.075 91.42 55.335C91.42 57.595 90.8 59.385 89.58 60.535H89.59ZM96.86 70.015C102.37 66.855 105.14 61.755 105.14 54.735C105.14 49.515 103.44 45.385 100.06 42.355C96.67 39.315 91.26 37.805 83.84 37.805H62.23V91.555H75.79V72.955H84.14L93.18 91.555H108.08L96.87 70.025L96.86 70.015Z" fill="black"/>
<path d="M302.49 40.035C302.49 41.415 301.47 42.275 300.25 42.275C299.03 42.275 298.01 41.415 298.01 40.035C298.01 38.655 299.03 37.795 300.25 37.795C301.47 37.795 302.49 38.655 302.49 40.035ZM302.08 40.035C302.08 38.865 301.24 38.145 300.25 38.145C299.26 38.145 298.42 38.865 298.42 40.035C298.42 41.205 299.26 41.925 300.25 41.925C301.24 41.925 302.08 41.205 302.08 40.035ZM300.82 40.235L301.38 41.245H300.71L300.22 40.315H299.95V41.245H299.34V38.795H300.41C300.99 38.795 301.32 39.075 301.32 39.575C301.32 39.885 301.14 40.135 300.83 40.245L300.82 40.235ZM299.95 39.885H300.29C300.54 39.885 300.68 39.775 300.68 39.565C300.68 39.345 300.55 39.235 300.29 39.235H299.95V39.875V39.885Z" fill="black"/>
<path d="M42.94 55.795C42.3 55.795 41.74 55.405 41.28 55.025C38.27 52.435 32.93 47.735 30.83 45.175C29.02 42.965 27.46 40.935 26.68 38.345C26.23 36.875 26 35.335 26 33.775C26 31.725 26.39 29.725 27.16 27.825C29.72 21.525 35.91 17.455 42.94 17.455C49.97 17.455 56.16 21.525 58.72 27.825C59.49 29.725 59.88 31.725 59.88 33.775C59.88 35.335 59.65 36.875 59.2 38.345C58.42 40.925 56.86 42.965 55.05 45.175C52.95 47.735 47.62 52.435 44.62 55.005C44.13 55.405 43.57 55.795 42.94 55.795Z" fill="white"/>
<path d="M57.86 28.195H27.9C27.19 29.935 26.8 31.825 26.8 33.805C26.8 35.305 27.02 36.755 27.44 38.125H58.31C58.73 36.755 58.95 35.305 58.95 33.805C58.95 31.825 58.56 29.935 57.85 28.195H57.86Z" fill="#F7F5EE"/>
<path d="M42.88 18.365C36.06 18.365 30.24 22.435 27.9 28.195H57.86C55.52 22.435 49.69 18.365 42.88 18.365Z" fill="#660000"/>
<path d="M27.44 38.125C28.19 40.625 29.81 42.665 31.45 44.675C33.64 47.345 39.59 52.535 41.92 54.535C42.23 54.795 42.6 55.055 42.87 55.055C43.14 55.055 43.51 54.795 43.82 54.535C46.15 52.535 52.1 47.345 54.29 44.675C55.93 42.675 57.55 40.635 58.3 38.125H27.44Z" fill="#000E35"/>
<path d="M57.86 28.195H42.88V21.045C42.88 19.525 44.25 18.345 45.75 18.605C51.3 19.565 55.86 23.265 57.86 28.185V28.195Z" fill="#FF1200"/>
<path d="M58.32 38.125C57.56 40.625 55.95 42.665 54.31 44.675C52.12 47.345 46.17 52.535 43.84 54.535C43.53 54.795 43.16 55.055 42.89 55.055V40.705C42.89 39.285 44.04 38.135 45.46 38.135H58.33L58.32 38.125Z" fill="#0043FF"/>
</g>
<defs>
<clipPath id="clip0_150_204">
<rect width="276.49" height="74.09" fill="white" transform="translate(26 17.455)"/>
</clipPath>
</defs>
</svg>
