<svg width="159" height="43" viewBox="0 0 159 43" fill="none" xmlns="http://www.w3.org/2000/svg">
<g clip-path="url(#clip0_24_377)">
<path d="M101.35 11.8048H91.8733L84.9897 32.9073L78.1062 11.8048H74.7593L68.5371 23.8592V43H75.9382V24.5615L81.8729 43H87.8018L93.7768 24.4802V43H101.35V40.8352V11.8048Z" fill="#F7F5EE"/>
<path d="M120.31 11.8048H110.315L100.487 40.8352V43H107.934L109.798 37.0163H120.534L122.392 43L129.235 38.2525L120.316 11.8106L120.31 11.8048ZM111.701 30.3768L115.163 18.7113L118.625 30.3768H111.701Z" fill="#F7F5EE"/>
<path d="M122.386 43H133.922L139.937 32.0773L146.349 43H155.613L145.181 26.9236L154.4 11.8048H145.572L140.328 21.3288L135.049 11.8048H125.83L135.049 26.616L127.952 38.2525L122.386 43Z" fill="#F7F5EE"/>
<path d="M68.537 18.3573V11.8048H47.1963V43H58.6689L62.0502 36.4476H55.3392V30.4639H65.1383L68.5427 23.865H55.3392V18.3631H68.5427L68.537 18.3573Z" fill="#F7F5EE"/>
<path d="M36.5688 25.0026C35.8614 25.67 34.6135 26.0066 32.8193 26.0066H28.6214V18.0961H32.6871C34.5043 18.0961 35.7809 18.4211 36.517 19.0595C37.2531 19.6979 37.6211 20.673 37.6211 21.9846C37.6211 23.2963 37.2646 24.3351 36.563 25.0026H36.5688ZM40.7495 30.5045C43.9181 28.6705 45.511 25.7106 45.511 21.6364C45.511 18.6068 44.5334 16.2099 42.5897 14.4513C40.6402 12.687 37.5291 11.8106 33.2621 11.8106H20.835V43.0058H28.6329V32.2108H33.4347L38.6333 43.0058H47.2017L40.7552 30.5103L40.7495 30.5045Z" fill="#F7F5EE"/>
<path d="M159 13.1049C159 13.9058 158.414 14.4049 157.712 14.4049C157.01 14.4049 156.424 13.9058 156.424 13.1049C156.424 12.304 157.01 11.8048 157.712 11.8048C158.414 11.8048 159 12.304 159 13.1049ZM158.764 13.1049C158.764 12.4258 158.281 12.008 157.712 12.008C157.143 12.008 156.66 12.4258 156.66 13.1049C156.66 13.7839 157.143 14.2018 157.712 14.2018C158.281 14.2018 158.764 13.7839 158.764 13.1049ZM158.04 13.221L158.362 13.8071H157.976L157.695 13.2674H157.539V13.8071H157.189V12.3852H157.804C158.138 12.3852 158.327 12.5477 158.327 12.8379C158.327 13.0178 158.224 13.1629 158.045 13.2268L158.04 13.221ZM157.539 13.0178H157.735C157.879 13.0178 157.959 12.954 157.959 12.8321C157.959 12.7044 157.884 12.6406 157.735 12.6406H157.539V13.012V13.0178Z" fill="#F7F5EE"/>
<path d="M9.74162 22.2516C9.37358 22.2516 9.05154 22.0252 8.78701 21.8047C7.05606 20.3015 3.98521 17.5738 2.77757 16.088C1.7367 14.8054 0.839596 13.6272 0.391045 12.124C0.132265 11.2709 0 10.3771 0 9.47172C0 8.28195 0.224276 7.1212 0.667077 6.01849C2.13925 2.36213 5.6989 0 9.74162 0C13.7843 0 17.344 2.36213 18.8162 6.01849C19.259 7.1212 19.4832 8.28195 19.4832 9.47172C19.4832 10.3771 19.351 11.2709 19.0922 12.124C18.6436 13.6214 17.7465 14.8054 16.7057 16.088C15.498 17.5738 12.4329 20.3015 10.7077 21.7931C10.4259 22.0252 10.1039 22.2516 9.74162 22.2516Z" fill="white"/>
<path d="M18.3215 6.23322H1.09253C0.684237 7.24307 0.459961 8.33998 0.459961 9.48912C0.459961 10.3597 0.586476 11.2012 0.828003 11.9963H18.5803C18.8218 11.2012 18.9483 10.3597 18.9483 9.48912C18.9483 8.33998 18.7241 7.24307 18.3158 6.23322H18.3215Z" fill="#F7F5EE"/>
<path d="M9.70726 0.528137C5.78531 0.528137 2.43843 2.89026 1.09277 6.23323H18.3218C16.9761 2.89026 13.6235 0.528137 9.70726 0.528137Z" fill="#660000"/>
<path d="M0.828125 11.9963C1.25942 13.4473 2.19103 14.6312 3.13414 15.7978C4.39353 17.3474 7.81518 20.3595 9.15508 21.5203C9.33335 21.6712 9.54613 21.8221 9.7014 21.8221C9.85666 21.8221 10.0694 21.6712 10.2477 21.5203C11.5876 20.3595 15.0093 17.3474 16.2687 15.7978C17.2118 14.637 18.1434 13.4531 18.5747 11.9963H0.828125Z" fill="#000E35"/>
<path d="M18.3215 6.23321H9.70703V2.08353C9.70703 1.20136 10.4949 0.516517 11.3575 0.667414C14.5491 1.22457 17.1714 3.37196 18.3215 6.22741V6.23321Z" fill="#FF1200"/>
<path d="M18.5862 11.9963C18.1491 13.4473 17.2233 14.6312 16.2801 15.7978C15.0208 17.3474 11.5991 20.3595 10.2592 21.5203C10.0809 21.6712 9.86816 21.8221 9.71289 21.8221V13.4937C9.71289 12.6696 10.3742 12.0021 11.1908 12.0021H18.5919L18.5862 11.9963Z" fill="#0043FF"/>
</g>
<defs>
<clipPath id="clip0_24_377">
<rect width="159" height="43" fill="white"/>
</clipPath>
</defs>
</svg>
